<mxfile host="app.diagrams.net" agent="Mozilla/5.0 (Windows NT 10.0; Win64; x64) AppleWebKit/537.36 (KHTML, like Gecko) Chrome/130.0.0.0 Safari/537.36" version="24.8.4">
  <diagram name="Page-1" id="PmpmCMXjoErtfIjp1Z20">
    <mxGraphModel dx="794" dy="492" grid="1" gridSize="10" guides="1" tooltips="1" connect="1" arrows="1" fold="1" page="1" pageScale="1" pageWidth="1654" pageHeight="1169" math="0" shadow="0">
      <root>
        <mxCell id="0" />
        <mxCell id="1" parent="0" />
        <mxCell id="adaNp2SBIueH2hvDuyf6-4" style="edgeStyle=orthogonalEdgeStyle;rounded=0;orthogonalLoop=1;jettySize=auto;html=1;entryX=0;entryY=0.5;entryDx=0;entryDy=0;" edge="1" parent="1" source="adaNp2SBIueH2hvDuyf6-2" target="adaNp2SBIueH2hvDuyf6-3">
          <mxGeometry relative="1" as="geometry" />
        </mxCell>
        <mxCell id="adaNp2SBIueH2hvDuyf6-5" value="o_phase" style="edgeLabel;html=1;align=center;verticalAlign=middle;resizable=0;points=[];" vertex="1" connectable="0" parent="adaNp2SBIueH2hvDuyf6-4">
          <mxGeometry x="-0.075" relative="1" as="geometry">
            <mxPoint as="offset" />
          </mxGeometry>
        </mxCell>
        <mxCell id="adaNp2SBIueH2hvDuyf6-18" style="edgeStyle=orthogonalEdgeStyle;rounded=0;orthogonalLoop=1;jettySize=auto;html=1;exitX=0;exitY=0.25;exitDx=0;exitDy=0;entryX=0;entryY=0.25;entryDx=0;entryDy=0;" edge="1" parent="1" target="adaNp2SBIueH2hvDuyf6-2">
          <mxGeometry relative="1" as="geometry">
            <mxPoint x="40" y="320" as="sourcePoint" />
          </mxGeometry>
        </mxCell>
        <mxCell id="adaNp2SBIueH2hvDuyf6-19" value="i_frequency" style="edgeLabel;html=1;align=center;verticalAlign=middle;resizable=0;points=[];" vertex="1" connectable="0" parent="adaNp2SBIueH2hvDuyf6-18">
          <mxGeometry x="-0.1551" y="-1" relative="1" as="geometry">
            <mxPoint as="offset" />
          </mxGeometry>
        </mxCell>
        <mxCell id="adaNp2SBIueH2hvDuyf6-20" style="edgeStyle=orthogonalEdgeStyle;rounded=0;orthogonalLoop=1;jettySize=auto;html=1;exitX=0;exitY=0.75;exitDx=0;exitDy=0;entryX=0;entryY=0.75;entryDx=0;entryDy=0;" edge="1" parent="1" target="adaNp2SBIueH2hvDuyf6-2">
          <mxGeometry relative="1" as="geometry">
            <mxPoint x="40" y="420" as="sourcePoint" />
          </mxGeometry>
        </mxCell>
        <mxCell id="adaNp2SBIueH2hvDuyf6-21" value="i_offset" style="edgeLabel;html=1;align=center;verticalAlign=middle;resizable=0;points=[];" vertex="1" connectable="0" parent="adaNp2SBIueH2hvDuyf6-20">
          <mxGeometry x="-0.3293" relative="1" as="geometry">
            <mxPoint x="3" as="offset" />
          </mxGeometry>
        </mxCell>
        <mxCell id="adaNp2SBIueH2hvDuyf6-2" value="PHASE ACCUMULATOR" style="rounded=0;whiteSpace=wrap;html=1;fillColor=#f5f5f5;fontColor=#333333;strokeColor=#666666;" vertex="1" parent="1">
          <mxGeometry x="120" y="270" width="120" height="200" as="geometry" />
        </mxCell>
        <mxCell id="adaNp2SBIueH2hvDuyf6-9" style="edgeStyle=orthogonalEdgeStyle;rounded=0;orthogonalLoop=1;jettySize=auto;html=1;exitX=1;exitY=0.75;exitDx=0;exitDy=0;entryX=0;entryY=0.75;entryDx=0;entryDy=0;" edge="1" parent="1" source="adaNp2SBIueH2hvDuyf6-3" target="adaNp2SBIueH2hvDuyf6-7">
          <mxGeometry relative="1" as="geometry" />
        </mxCell>
        <mxCell id="adaNp2SBIueH2hvDuyf6-11" value="o_sin" style="edgeLabel;html=1;align=center;verticalAlign=middle;resizable=0;points=[];" vertex="1" connectable="0" parent="adaNp2SBIueH2hvDuyf6-9">
          <mxGeometry x="-0.475" y="2" relative="1" as="geometry">
            <mxPoint x="13" as="offset" />
          </mxGeometry>
        </mxCell>
        <mxCell id="adaNp2SBIueH2hvDuyf6-22" style="edgeStyle=orthogonalEdgeStyle;rounded=0;orthogonalLoop=1;jettySize=auto;html=1;entryX=0;entryY=0.25;entryDx=0;entryDy=0;" edge="1" parent="1" target="adaNp2SBIueH2hvDuyf6-3">
          <mxGeometry relative="1" as="geometry">
            <mxPoint x="310" y="320" as="sourcePoint" />
          </mxGeometry>
        </mxCell>
        <mxCell id="adaNp2SBIueH2hvDuyf6-23" value="i_amplitude" style="edgeLabel;html=1;align=center;verticalAlign=middle;resizable=0;points=[];" vertex="1" connectable="0" parent="adaNp2SBIueH2hvDuyf6-22">
          <mxGeometry x="-0.3934" y="1" relative="1" as="geometry">
            <mxPoint x="-1" as="offset" />
          </mxGeometry>
        </mxCell>
        <mxCell id="adaNp2SBIueH2hvDuyf6-24" style="edgeStyle=orthogonalEdgeStyle;rounded=0;orthogonalLoop=1;jettySize=auto;html=1;entryX=0;entryY=0.5;entryDx=0;entryDy=0;" edge="1" parent="1" source="adaNp2SBIueH2hvDuyf6-3" target="adaNp2SBIueH2hvDuyf6-7">
          <mxGeometry relative="1" as="geometry" />
        </mxCell>
        <mxCell id="adaNp2SBIueH2hvDuyf6-25" value="o_cos" style="edgeLabel;html=1;align=center;verticalAlign=middle;resizable=0;points=[];" vertex="1" connectable="0" parent="adaNp2SBIueH2hvDuyf6-24">
          <mxGeometry x="-0.4175" y="-1" relative="1" as="geometry">
            <mxPoint x="10" y="-1" as="offset" />
          </mxGeometry>
        </mxCell>
        <mxCell id="adaNp2SBIueH2hvDuyf6-3" value="CORDIC" style="rounded=0;whiteSpace=wrap;html=1;fillColor=#f5f5f5;fontColor=#333333;strokeColor=#666666;" vertex="1" parent="1">
          <mxGeometry x="380" y="270" width="120" height="200" as="geometry" />
        </mxCell>
        <mxCell id="adaNp2SBIueH2hvDuyf6-12" style="edgeStyle=orthogonalEdgeStyle;rounded=0;orthogonalLoop=1;jettySize=auto;html=1;exitX=1;exitY=0.25;exitDx=0;exitDy=0;" edge="1" parent="1" source="adaNp2SBIueH2hvDuyf6-7">
          <mxGeometry relative="1" as="geometry">
            <mxPoint x="800" y="320" as="targetPoint" />
          </mxGeometry>
        </mxCell>
        <mxCell id="adaNp2SBIueH2hvDuyf6-14" value="o_cos" style="edgeLabel;html=1;align=center;verticalAlign=middle;resizable=0;points=[];" vertex="1" connectable="0" parent="adaNp2SBIueH2hvDuyf6-12">
          <mxGeometry x="-0.1802" relative="1" as="geometry">
            <mxPoint x="-5" as="offset" />
          </mxGeometry>
        </mxCell>
        <mxCell id="adaNp2SBIueH2hvDuyf6-13" style="edgeStyle=orthogonalEdgeStyle;rounded=0;orthogonalLoop=1;jettySize=auto;html=1;exitX=1;exitY=0.75;exitDx=0;exitDy=0;" edge="1" parent="1" source="adaNp2SBIueH2hvDuyf6-7">
          <mxGeometry relative="1" as="geometry">
            <mxPoint x="800" y="420" as="targetPoint" />
          </mxGeometry>
        </mxCell>
        <mxCell id="adaNp2SBIueH2hvDuyf6-15" value="o_sin" style="edgeLabel;html=1;align=center;verticalAlign=middle;resizable=0;points=[];" vertex="1" connectable="0" parent="adaNp2SBIueH2hvDuyf6-13">
          <mxGeometry x="-0.4021" relative="1" as="geometry">
            <mxPoint x="4" as="offset" />
          </mxGeometry>
        </mxCell>
        <mxCell id="adaNp2SBIueH2hvDuyf6-26" style="edgeStyle=orthogonalEdgeStyle;rounded=0;orthogonalLoop=1;jettySize=auto;html=1;exitX=0;exitY=0.25;exitDx=0;exitDy=0;entryX=0;entryY=0.25;entryDx=0;entryDy=0;" edge="1" parent="1" target="adaNp2SBIueH2hvDuyf6-7">
          <mxGeometry relative="1" as="geometry">
            <mxPoint x="520" y="320" as="sourcePoint" />
          </mxGeometry>
        </mxCell>
        <mxCell id="adaNp2SBIueH2hvDuyf6-27" value="i_offset" style="edgeLabel;html=1;align=center;verticalAlign=middle;resizable=0;points=[];" vertex="1" connectable="0" parent="adaNp2SBIueH2hvDuyf6-26">
          <mxGeometry x="-0.3531" y="-1" relative="1" as="geometry">
            <mxPoint as="offset" />
          </mxGeometry>
        </mxCell>
        <mxCell id="adaNp2SBIueH2hvDuyf6-7" value="OFFSET" style="rounded=0;whiteSpace=wrap;html=1;fillColor=#f5f5f5;fontColor=#333333;strokeColor=#666666;" vertex="1" parent="1">
          <mxGeometry x="603" y="270" width="120" height="200" as="geometry" />
        </mxCell>
        <mxCell id="adaNp2SBIueH2hvDuyf6-16" value="STEP CALC" style="rounded=0;whiteSpace=wrap;html=1;fillColor=#dae8fc;strokeColor=#6c8ebf;" vertex="1" parent="1">
          <mxGeometry x="135" y="290" width="90" height="40" as="geometry" />
        </mxCell>
        <mxCell id="adaNp2SBIueH2hvDuyf6-17" value="STEP SUM" style="rounded=0;whiteSpace=wrap;html=1;fillColor=#dae8fc;strokeColor=#6c8ebf;" vertex="1" parent="1">
          <mxGeometry x="135" y="410" width="90" height="40" as="geometry" />
        </mxCell>
        <mxCell id="adaNp2SBIueH2hvDuyf6-29" value="Amplitude * SIN(Phi + Phi_Offset) + Amplitude_Offset" style="text;html=1;align=center;verticalAlign=middle;whiteSpace=wrap;rounded=0;fillColor=#fff2cc;strokeColor=#d6b656;" vertex="1" parent="1">
          <mxGeometry x="810" y="400" width="310" height="30" as="geometry" />
        </mxCell>
        <mxCell id="adaNp2SBIueH2hvDuyf6-30" value="Amplitude * COS(Phi + Phi_Offset) + Amplitude_Offset" style="text;html=1;align=center;verticalAlign=middle;whiteSpace=wrap;rounded=0;fillColor=#fff2cc;strokeColor=#d6b656;" vertex="1" parent="1">
          <mxGeometry x="810" y="300" width="310" height="30" as="geometry" />
        </mxCell>
        <mxCell id="adaNp2SBIueH2hvDuyf6-31" value="Amplitude / 1.64676" style="text;html=1;align=center;verticalAlign=middle;whiteSpace=wrap;rounded=0;fillColor=#fff2cc;strokeColor=#d6b656;" vertex="1" parent="1">
          <mxGeometry x="300" y="230" width="130" height="30" as="geometry" />
        </mxCell>
        <mxCell id="adaNp2SBIueH2hvDuyf6-32" value="" style="shape=flexArrow;endArrow=classic;html=1;rounded=0;fillColor=#fff2cc;strokeColor=#d6b656;" edge="1" parent="1">
          <mxGeometry width="50" height="50" relative="1" as="geometry">
            <mxPoint x="330" y="260" as="sourcePoint" />
            <mxPoint x="330" y="310" as="targetPoint" />
          </mxGeometry>
        </mxCell>
        <mxCell id="adaNp2SBIueH2hvDuyf6-33" value="Phase =&amp;gt; 0 - 2PI = 0 - 2^24" style="text;html=1;align=center;verticalAlign=middle;whiteSpace=wrap;rounded=0;fillColor=#fff2cc;strokeColor=#d6b656;" vertex="1" parent="1">
          <mxGeometry x="80" y="80" width="190" height="40" as="geometry" />
        </mxCell>
        <mxCell id="adaNp2SBIueH2hvDuyf6-34" value="FIXPOINT FORMAT Q16.8 (24Bit)&lt;div&gt;Amplitude = ((2^15 - 1) / 1.64676) * 2^8&amp;nbsp;&lt;/div&gt;" style="text;html=1;align=center;verticalAlign=middle;whiteSpace=wrap;rounded=0;fillColor=#fff2cc;strokeColor=#d6b656;" vertex="1" parent="1">
          <mxGeometry x="320" y="80" width="260" height="40" as="geometry" />
        </mxCell>
        <mxCell id="adaNp2SBIueH2hvDuyf6-35" value="+ 2^15 * 2^8 =&amp;gt; 0 - 65535" style="text;html=1;align=center;verticalAlign=middle;whiteSpace=wrap;rounded=0;fillColor=#fff2cc;strokeColor=#d6b656;" vertex="1" parent="1">
          <mxGeometry x="600" y="200" width="260" height="40" as="geometry" />
        </mxCell>
        <mxCell id="adaNp2SBIueH2hvDuyf6-36" value="&lt;div&gt;(- 32768 - 32767) * 2^8&lt;/div&gt;" style="text;html=1;align=center;verticalAlign=middle;whiteSpace=wrap;rounded=0;fillColor=#fff2cc;strokeColor=#d6b656;" vertex="1" parent="1">
          <mxGeometry x="380" y="480" width="150" height="30" as="geometry" />
        </mxCell>
        <mxCell id="adaNp2SBIueH2hvDuyf6-37" value="16 BIT" style="text;html=1;align=center;verticalAlign=middle;whiteSpace=wrap;rounded=0;fillColor=#fff2cc;strokeColor=#d6b656;" vertex="1" parent="1">
          <mxGeometry x="810" y="250" width="150" height="30" as="geometry" />
        </mxCell>
        <mxCell id="adaNp2SBIueH2hvDuyf6-38" value="MIN_FREQ = 50 * 10^6 / 2^24 = 3 Hz" style="text;html=1;align=center;verticalAlign=middle;whiteSpace=wrap;rounded=0;fillColor=#fff2cc;strokeColor=#d6b656;" vertex="1" parent="1">
          <mxGeometry x="50" y="480" width="230" height="40" as="geometry" />
        </mxCell>
        <mxCell id="adaNp2SBIueH2hvDuyf6-39" value="STEP = [(i_frequency * 1374) / 4096] + 1" style="text;html=1;align=center;verticalAlign=middle;whiteSpace=wrap;rounded=0;fillColor=#fff2cc;strokeColor=#d6b656;" vertex="1" parent="1">
          <mxGeometry x="50" y="540" width="230" height="40" as="geometry" />
        </mxCell>
        <mxCell id="adaNp2SBIueH2hvDuyf6-40" value="3 - 4095 Hz" style="text;html=1;align=center;verticalAlign=middle;whiteSpace=wrap;rounded=0;fillColor=#fff2cc;strokeColor=#d6b656;" vertex="1" parent="1">
          <mxGeometry x="30" y="230" width="130" height="30" as="geometry" />
        </mxCell>
        <mxCell id="adaNp2SBIueH2hvDuyf6-41" value="" style="shape=flexArrow;endArrow=classic;html=1;rounded=0;fillColor=#fff2cc;strokeColor=#d6b656;" edge="1" parent="1">
          <mxGeometry width="50" height="50" relative="1" as="geometry">
            <mxPoint x="70" y="260" as="sourcePoint" />
            <mxPoint x="70" y="310" as="targetPoint" />
          </mxGeometry>
        </mxCell>
        <mxCell id="adaNp2SBIueH2hvDuyf6-42" value="1374 = 2^10 + 2^8 + 2^6 + 2^4 + 2^3 + 2^2 + 2^1&amp;nbsp; &amp;nbsp; &amp;nbsp;&lt;div&gt;&amp;nbsp;Nachfolgend Division =&amp;gt;&amp;nbsp; Potenzregel&lt;/div&gt;&lt;div&gt;1374 / 4096 = 2^-2 + 2^-4 + 2^-6 + 2^-8 + 2^-9 + 2^-10 + 2^-11&lt;/div&gt;" style="text;html=1;align=center;verticalAlign=middle;whiteSpace=wrap;rounded=0;fillColor=#fff2cc;strokeColor=#d6b656;" vertex="1" parent="1">
          <mxGeometry x="50" y="600" width="400" height="80" as="geometry" />
        </mxCell>
      </root>
    </mxGraphModel>
  </diagram>
</mxfile>
